<?xml version="1.0" encoding="utf-8" ?><svg xmlns="http://www.w3.org/2000/svg" xmlns:xlink="http://www.w3.org/1999/xlink" width="1024" height="1024" viewBox="0 0 1024 1024"><path fill="#20293A" d="M0 0L1024 0L1024 1024L0 1024L0 0Z"/><path fill="#FEFEFE" d="M353.961 396.697C355.645 397.799 364.491 406.748 366.327 408.574L395.376 437.576L463.079 505.28C479.835 522.232 496.768 539.009 513.874 555.607C527.663 542.598 541.557 528.477 555.033 515.073L629.862 440.205C643.549 426.483 659.939 408.965 673.919 396.231C674.558 431.199 674.018 467.934 674.017 502.991L674.021 706.347L632.113 706.48C631.765 691.586 632.035 675.565 632.031 660.614L632.026 574.531L631.917 490.89L513.796 608.46L395.653 490.422C395.839 498.044 395.614 505.707 395.672 513.332C396.16 577.588 394.8 642.112 395.775 706.35C381.994 706.591 367.746 706.437 353.929 706.466L353.971 493.313C353.968 461.331 353.534 428.587 353.961 396.697Z"/><path fill="#FEFEFE" d="M353.978 308.697C355.428 309.67 363.348 317.897 365.071 319.635L391.315 346.104L464.275 418.805C480.082 434.715 497.844 453.487 514.066 468.58C531.862 451.546 549.74 432.693 567.214 415.117L673.942 308.397L673.966 368.63C667.782 375.797 655.548 387.349 648.543 394.358L596.708 446.075L540.859 501.84C533.056 509.622 521.472 522.128 513.63 528.964L353.907 368.983L353.978 308.697Z"/></svg>