<svg width="93" height="19" viewBox="0 0 93 19" fill="none" xmlns="http://www.w3.org/2000/svg">
<path d="M19.91 13V6H23.01C23.4433 6 23.8367 6.1 24.19 6.3C24.5433 6.49333 24.82 6.75667 25.02 7.09C25.2267 7.42333 25.33 7.80333 25.33 8.23C25.33 8.65 25.2267 9.03333 25.02 9.38C24.82 9.72 24.5433 9.99 24.19 10.19C23.8367 10.39 23.4433 10.49 23.01 10.49H21.36V13H19.91ZM23.88 13L22.1 9.84L23.64 9.59L25.62 13.01L23.88 13ZM21.36 9.27H22.94C23.12 9.27 23.2767 9.23 23.41 9.15C23.55 9.06333 23.6567 8.94667 23.73 8.8C23.8033 8.64667 23.84 8.47667 23.84 8.29C23.84 8.09 23.7967 7.91667 23.71 7.77C23.6233 7.62333 23.4967 7.51 23.33 7.43C23.1633 7.34333 22.97 7.3 22.75 7.3H21.36V9.27ZM29.0266 13.1C28.4533 13.1 27.9533 12.9833 27.5266 12.75C27.1 12.5167 26.7666 12.1967 26.5266 11.79C26.2866 11.3833 26.1666 10.9167 26.1666 10.39C26.1666 9.98333 26.2333 9.61 26.3666 9.27C26.5 8.93 26.6866 8.63667 26.9266 8.39C27.1666 8.13667 27.45 7.94333 27.7766 7.81C28.11 7.67 28.47 7.6 28.8566 7.6C29.2166 7.6 29.55 7.66667 29.8566 7.8C30.1633 7.92667 30.4266 8.11 30.6466 8.35C30.8733 8.58333 31.0466 8.86 31.1666 9.18C31.2866 9.5 31.34 9.85 31.3266 10.23L31.3166 10.67H27.0666L26.8366 9.8H30.1466L29.9866 9.98V9.76C29.9733 9.58 29.9133 9.41667 29.8066 9.27C29.7066 9.12333 29.5766 9.01 29.4166 8.93C29.2566 8.85 29.0766 8.81 28.8766 8.81C28.5833 8.81 28.3333 8.86667 28.1266 8.98C27.9266 9.09333 27.7733 9.26 27.6666 9.48C27.56 9.7 27.5066 9.96667 27.5066 10.28C27.5066 10.6 27.5733 10.8767 27.7066 11.11C27.8466 11.3433 28.04 11.5267 28.2866 11.66C28.54 11.7867 28.8366 11.85 29.1766 11.85C29.41 11.85 29.6233 11.8133 29.8166 11.74C30.01 11.6667 30.2166 11.54 30.4366 11.36L31.1166 12.31C30.9233 12.4833 30.71 12.63 30.4766 12.75C30.2433 12.8633 30.0033 12.95 29.7566 13.01C29.51 13.07 29.2666 13.1 29.0266 13.1ZM34.676 13.1C34.1693 13.1 33.716 12.98 33.316 12.74C32.916 12.5 32.5993 12.1733 32.366 11.76C32.1393 11.3467 32.026 10.8767 32.026 10.35C32.026 9.83 32.1393 9.36333 32.366 8.95C32.5993 8.53 32.916 8.2 33.316 7.96C33.716 7.72 34.1693 7.6 34.676 7.6C35.1493 7.6 35.5827 7.68667 35.976 7.86C36.3693 8.03333 36.676 8.27333 36.896 8.58L36.116 9.52C36.0227 9.39333 35.906 9.28 35.766 9.18C35.626 9.07333 35.4727 8.99 35.306 8.93C35.146 8.87 34.9793 8.84 34.806 8.84C34.5327 8.84 34.2893 8.90667 34.076 9.04C33.8693 9.16667 33.706 9.34333 33.586 9.57C33.466 9.79667 33.406 10.0567 33.406 10.35C33.406 10.6367 33.466 10.8933 33.586 11.12C33.7127 11.34 33.8827 11.52 34.096 11.66C34.3093 11.7933 34.5493 11.86 34.816 11.86C34.9893 11.86 35.1527 11.8367 35.306 11.79C35.4593 11.7367 35.6027 11.66 35.736 11.56C35.876 11.46 36.0027 11.34 36.116 11.2L36.886 12.14C36.6593 12.4267 36.346 12.66 35.946 12.84C35.546 13.0133 35.1227 13.1 34.676 13.1ZM37.7959 13V5.6H39.1959V8.79L38.9159 8.91C38.9893 8.67 39.1193 8.45333 39.3059 8.26C39.4993 8.06 39.7293 7.9 39.9959 7.78C40.2626 7.66 40.5426 7.6 40.8359 7.6C41.2359 7.6 41.5693 7.68 41.8359 7.84C42.1093 8 42.3126 8.24333 42.4459 8.57C42.5859 8.89 42.6559 9.28667 42.6559 9.76V13H41.2359V9.87C41.2359 9.63 41.2026 9.43 41.1359 9.27C41.0693 9.11 40.9659 8.99333 40.8259 8.92C40.6926 8.84 40.5259 8.80667 40.3259 8.82C40.1659 8.82 40.0159 8.84667 39.8759 8.9C39.7426 8.94667 39.6259 9.01667 39.5259 9.11C39.4326 9.20333 39.3559 9.31 39.2959 9.43C39.2426 9.55 39.2159 9.68 39.2159 9.82V13H38.5159C38.3626 13 38.2259 13 38.1059 13C37.9859 13 37.8826 13 37.7959 13ZM44.0166 13V7.71H45.3766L45.4166 8.79L45.1366 8.91C45.21 8.67 45.34 8.45333 45.5266 8.26C45.72 8.06 45.95 7.9 46.2166 7.78C46.4833 7.66 46.7633 7.6 47.0566 7.6C47.4566 7.6 47.79 7.68 48.0566 7.84C48.33 8 48.5333 8.24333 48.6666 8.57C48.8066 8.89 48.8766 9.28667 48.8766 9.76V13H47.4566V9.87C47.4566 9.63 47.4233 9.43 47.3566 9.27C47.29 9.11 47.1866 8.99333 47.0466 8.92C46.9133 8.84 46.7466 8.80667 46.5466 8.82C46.3866 8.82 46.2366 8.84667 46.0966 8.9C45.9633 8.94667 45.8466 9.01667 45.7466 9.11C45.6533 9.20333 45.5766 9.31 45.5166 9.43C45.4633 9.55 45.4366 9.68 45.4366 9.82V13H44.7366C44.5833 13 44.4466 13 44.3266 13C44.2066 13 44.1033 13 44.0166 13ZM52.0573 13.1C51.6707 13.1 51.3373 13.0167 51.0573 12.85C50.784 12.6767 50.5707 12.4333 50.4173 12.12C50.2707 11.8 50.1973 11.4167 50.1973 10.97V7.71H51.6173V10.74C51.6173 10.98 51.6573 11.19 51.7373 11.37C51.8173 11.5433 51.9307 11.6767 52.0773 11.77C52.224 11.8633 52.404 11.91 52.6173 11.91C52.7707 11.91 52.914 11.8867 53.0473 11.84C53.1807 11.7867 53.294 11.7133 53.3873 11.62C53.4807 11.5267 53.554 11.4167 53.6073 11.29C53.6607 11.1633 53.6873 11.0267 53.6873 10.88V7.71H55.1073V13H53.7573L53.7073 11.91L53.9673 11.79C53.8873 12.0367 53.754 12.26 53.5673 12.46C53.3807 12.66 53.1573 12.8167 52.8973 12.93C52.6373 13.0433 52.3573 13.1 52.0573 13.1ZM56.5362 13V7.71H57.8962L57.9362 8.79L57.6562 8.91C57.7295 8.67 57.8595 8.45333 58.0462 8.26C58.2395 8.06 58.4695 7.9 58.7362 7.78C59.0028 7.66 59.2828 7.6 59.5762 7.6C59.9762 7.6 60.3095 7.68 60.5762 7.84C60.8495 8 61.0528 8.24333 61.1862 8.57C61.3262 8.89 61.3962 9.28667 61.3962 9.76V13H59.9762V9.87C59.9762 9.63 59.9428 9.43 59.8762 9.27C59.8095 9.11 59.7062 8.99333 59.5662 8.92C59.4328 8.84 59.2662 8.80667 59.0662 8.82C58.9062 8.82 58.7562 8.84667 58.6162 8.9C58.4828 8.94667 58.3662 9.01667 58.2662 9.11C58.1728 9.20333 58.0962 9.31 58.0362 9.43C57.9828 9.55 57.9562 9.68 57.9562 9.82V13H57.2562C57.1028 13 56.9662 13 56.8462 13C56.7262 13 56.6228 13 56.5362 13ZM65.1669 15.3C64.7469 15.3 64.3335 15.2367 63.9269 15.11C63.5202 14.99 63.1902 14.8333 62.9369 14.64L63.4369 13.62C63.5702 13.7133 63.7235 13.7967 63.8969 13.87C64.0702 13.9433 64.2502 14 64.4369 14.04C64.6302 14.08 64.8269 14.1 65.0269 14.1C65.3735 14.1 65.6569 14.0467 65.8769 13.94C66.1035 13.8333 66.2735 13.6733 66.3869 13.46C66.5002 13.2533 66.5569 12.9867 66.5569 12.66V11.74L66.7969 11.79C66.7569 12.01 66.6469 12.2133 66.4669 12.4C66.2869 12.58 66.0602 12.7267 65.7869 12.84C65.5135 12.9467 65.2335 13 64.9469 13C64.4535 13 64.0169 12.8867 63.6369 12.66C63.2569 12.4333 62.9569 12.12 62.7369 11.72C62.5169 11.32 62.4069 10.86 62.4069 10.34C62.4069 9.80667 62.5135 9.33667 62.7269 8.93C62.9469 8.51667 63.2435 8.19333 63.6169 7.96C63.9969 7.72 64.4269 7.6 64.9069 7.6C65.1069 7.6 65.2969 7.62333 65.4769 7.67C65.6635 7.71667 65.8335 7.78333 65.9869 7.87C66.1469 7.95 66.2869 8.04333 66.4069 8.15C66.5335 8.25 66.6369 8.36 66.7169 8.48C66.7969 8.6 66.8469 8.72 66.8669 8.84L66.5769 8.92L66.6169 7.71H67.9769V12.6C67.9769 13.0333 67.9135 13.4167 67.7869 13.75C67.6602 14.0833 67.4735 14.3633 67.2269 14.59C66.9869 14.8233 66.6902 15 66.3369 15.12C65.9902 15.24 65.6002 15.3 65.1669 15.3ZM65.2069 11.86C65.4869 11.86 65.7302 11.7967 65.9369 11.67C66.1502 11.5433 66.3135 11.3667 66.4269 11.14C66.5402 10.9133 66.5969 10.6467 66.5969 10.34C66.5969 10.04 66.5402 9.77667 66.4269 9.55C66.3135 9.31667 66.1502 9.13667 65.9369 9.01C65.7302 8.88333 65.4869 8.82 65.2069 8.82C64.9335 8.82 64.6902 8.88667 64.4769 9.02C64.2702 9.14667 64.1102 9.32333 63.9969 9.55C63.8835 9.77667 63.8269 10.04 63.8269 10.34C63.8269 10.64 63.8835 10.9067 63.9969 11.14C64.1102 11.3667 64.2702 11.5433 64.4769 11.67C64.6902 11.7967 64.9335 11.86 65.2069 11.86ZM71.0701 13.1C70.5767 13.1 70.1367 13.02 69.7501 12.86C69.3701 12.6933 69.0634 12.4667 68.8301 12.18L69.7101 11.42C69.9167 11.64 70.1467 11.8 70.4001 11.9C70.6534 11.9933 70.9067 12.04 71.1601 12.04C71.2601 12.04 71.3501 12.03 71.4301 12.01C71.5167 11.9833 71.5901 11.95 71.6501 11.91C71.7101 11.8633 71.7534 11.81 71.7801 11.75C71.8134 11.6833 71.8301 11.6133 71.8301 11.54C71.8301 11.3933 71.7701 11.2767 71.6501 11.19C71.5834 11.1567 71.4801 11.1167 71.3401 11.07C71.2001 11.0167 71.0201 10.96 70.8001 10.9C70.4601 10.8133 70.1701 10.7133 69.9301 10.6C69.6967 10.48 69.5101 10.3467 69.3701 10.2C69.2501 10.06 69.1567 9.91 69.0901 9.75C69.0301 9.58333 69.0001 9.4 69.0001 9.2C69.0001 8.96 69.0534 8.74333 69.1601 8.55C69.2667 8.35 69.4134 8.18 69.6001 8.04C69.7934 7.9 70.0134 7.79333 70.2601 7.72C70.5067 7.64 70.7667 7.6 71.0401 7.6C71.3134 7.6 71.5801 7.63333 71.8401 7.7C72.1001 7.76667 72.3401 7.86333 72.5601 7.99C72.7867 8.11 72.9834 8.25333 73.1501 8.42L72.3901 9.26C72.2701 9.14667 72.1334 9.04333 71.9801 8.95C71.8334 8.85667 71.6801 8.78333 71.5201 8.73C71.3601 8.67667 71.2167 8.65 71.0901 8.65C70.9767 8.65 70.8734 8.66 70.7801 8.68C70.6934 8.7 70.6201 8.73 70.5601 8.77C70.5001 8.81 70.4534 8.86333 70.4201 8.93C70.3934 8.99 70.3801 9.05667 70.3801 9.13C70.3801 9.20333 70.3967 9.27333 70.4301 9.34C70.4701 9.40667 70.5234 9.46333 70.5901 9.51C70.6634 9.55 70.7701 9.59667 70.9101 9.65C71.0567 9.70333 71.2534 9.76333 71.5001 9.83C71.8201 9.91667 72.0901 10.0133 72.3101 10.12C72.5367 10.2267 72.7167 10.35 72.8501 10.49C72.9634 10.61 73.0467 10.7467 73.1001 10.9C73.1534 11.0533 73.1801 11.2233 73.1801 11.41C73.1801 11.7367 73.0867 12.03 72.9001 12.29C72.7201 12.5433 72.4701 12.7433 72.1501 12.89C71.8301 13.03 71.4701 13.1 71.0701 13.1ZM73.5624 13L76.3024 6H77.6424L80.3724 13H78.8324L77.4224 9.23C77.3824 9.12333 77.3324 8.98667 77.2724 8.82C77.2191 8.65333 77.1624 8.47667 77.1024 8.29C77.0424 8.10333 76.9858 7.92667 76.9324 7.76C76.8791 7.58667 76.8391 7.44333 76.8124 7.33L77.0824 7.32C77.0424 7.47333 76.9958 7.63333 76.9424 7.8C76.8958 7.96 76.8458 8.12667 76.7924 8.3C76.7391 8.46667 76.6824 8.63 76.6224 8.79C76.5624 8.95 76.5058 9.10667 76.4524 9.26L75.0424 13H73.5624ZM74.8324 11.53L75.3224 10.32H78.5324L79.0324 11.53H74.8324ZM81.3553 13V6H84.3253C84.7386 6 85.112 6.1 85.4453 6.3C85.7853 6.49333 86.052 6.76 86.2453 7.1C86.4453 7.44 86.5453 7.82333 86.5453 8.25C86.5453 8.68333 86.4453 9.07333 86.2453 9.42C86.052 9.76667 85.7853 10.0433 85.4453 10.25C85.112 10.45 84.7386 10.55 84.3253 10.55H82.8553V13H81.3553ZM82.8353 9.2H84.1553C84.3153 9.2 84.4586 9.16 84.5853 9.08C84.712 8.99333 84.812 8.88 84.8853 8.74C84.9653 8.6 85.0053 8.44 85.0053 8.26C85.0053 8.08 84.9653 7.92333 84.8853 7.79C84.812 7.65 84.712 7.54333 84.5853 7.47C84.4586 7.39 84.3153 7.35 84.1553 7.35H82.8353V9.2ZM87.7085 13V11.71H88.8785V7.29H87.7085V6H91.5485V7.29H90.3785V11.71H91.5485V13H87.7085Z" fill="black"/>
<path d="M3.44383 9.45597V8.73366C3.81457 8.73366 4.07132 8.66016 4.21407 8.51314C4.35896 8.36612 4.4314 8.13281 4.4314 7.81321V7.20916C4.4314 6.78089 4.49426 6.44425 4.61997 6.19922C4.74781 5.95419 4.92146 5.77415 5.14092 5.65909C5.36251 5.54403 5.61819 5.47159 5.90797 5.44176C6.19774 5.4098 6.50562 5.39382 6.83162 5.39382V6.54119C6.57593 6.54119 6.38417 6.57209 6.25633 6.63388C6.13062 6.69567 6.04646 6.78942 6.00385 6.91513C5.96123 7.04084 5.93993 7.19957 5.93993 7.39134V8.20952C5.93993 8.37145 5.9069 8.52699 5.84085 8.67614C5.7748 8.82528 5.65335 8.95845 5.4765 9.07564C5.29966 9.19283 5.04717 9.28551 4.71904 9.35369C4.39305 9.42187 3.96798 9.45597 3.44383 9.45597ZM6.83162 13.451C6.50562 13.451 6.19774 13.435 5.90797 13.4031C5.61819 13.3732 5.36251 13.3008 5.14092 13.1857C4.92146 13.0707 4.74781 12.8906 4.61997 12.6456C4.49426 12.4006 4.4314 12.0639 4.4314 11.6357V11.0348C4.4314 10.7131 4.35896 10.4798 4.21407 10.3349C4.07132 10.1879 3.81457 10.1143 3.44383 10.1143V9.38885C3.96798 9.38885 4.39305 9.42401 4.71904 9.49432C5.04717 9.5625 5.29966 9.65518 5.4765 9.77237C5.65335 9.88743 5.7748 10.0195 5.84085 10.1687C5.9069 10.3178 5.93993 10.4734 5.93993 10.6353V11.4535C5.93993 11.6452 5.96123 11.804 6.00385 11.9297C6.04646 12.0554 6.13062 12.1491 6.25633 12.2109C6.38417 12.2727 6.57593 12.3036 6.83162 12.3036V13.451ZM3.44383 10.1143V8.73366H4.71904V10.1143H3.44383ZM11.5554 9.38885V10.1143C11.1868 10.1143 10.93 10.1879 10.7851 10.3349C10.6402 10.4798 10.5678 10.7131 10.5678 11.0348V11.6357C10.5678 12.0639 10.5039 12.4006 10.376 12.6456C10.2503 12.8906 10.0767 13.0707 9.85509 13.1857C9.63562 13.3008 9.38101 13.3732 9.09124 13.4031C8.80359 13.435 8.49571 13.451 8.16759 13.451V12.3036C8.42327 12.3036 8.61396 12.2727 8.73967 12.2109C8.86751 12.1491 8.95274 12.0554 8.99536 11.9297C9.03797 11.804 9.05928 11.6452 9.05928 11.4535V10.6353C9.05928 10.4734 9.0923 10.3178 9.15835 10.1687C9.2244 10.0195 9.34585 9.88743 9.5227 9.77237C9.69955 9.65518 9.95097 9.5625 10.277 9.49432C10.6051 9.42401 11.0312 9.38885 11.5554 9.38885ZM8.16759 5.39382C8.49571 5.39382 8.80359 5.4098 9.09124 5.44176C9.38101 5.47159 9.63562 5.54403 9.85509 5.65909C10.0767 5.77415 10.2503 5.95419 10.376 6.19922C10.5039 6.44425 10.5678 6.78089 10.5678 7.20916V7.81321C10.5678 8.13281 10.6402 8.36612 10.7851 8.51314C10.93 8.66016 11.1868 8.73366 11.5554 8.73366V9.45597C11.0312 9.45597 10.6051 9.42187 10.277 9.35369C9.95097 9.28551 9.69955 9.19283 9.5227 9.07564C9.34585 8.95845 9.2244 8.82528 9.15835 8.67614C9.0923 8.52699 9.05928 8.37145 9.05928 8.20952V7.39134C9.05928 7.19957 9.03797 7.04084 8.99536 6.91513C8.95274 6.78942 8.86751 6.69567 8.73967 6.63388C8.61396 6.57209 8.42327 6.54119 8.16759 6.54119V5.39382ZM11.5554 8.73366V10.1143H10.2802V8.73366H11.5554Z" fill="#0D64AC"/>
<path fill-rule="evenodd" clip-rule="evenodd" d="M2 0C0.895431 0 0 0.895431 0 2V17C0 18.1046 0.89543 19 2 19H13C14.1046 19 15 18.1046 15 17V2C15 0.895431 14.1046 0 13 0H2ZM3 1.5C2.17157 1.5 1.5 2.17157 1.5 3V16C1.5 16.8284 2.17157 17.5 3 17.5H12C12.8284 17.5 13.5 16.8284 13.5 16V3C13.5 2.17157 12.8284 1.5 12 1.5H3Z" fill="#0D64AC"/>
</svg>
